# xmcd
#
# Track frame offsets:
#	150
#	14017
#	32665
#	47135
#	63332
#	80460
#	97013
#	114907
#	131330
#	148693
#	164482
#	180510
#	194862
#	208802
#	224165
#	241726
#	255712
#
# Disc length: 3612
#
# Revision: 2
# Processed by: cddbd v1.5.1PL0 Copyright (c) Steve Scherf et al.
# Submitted via: audiograbber 1.83.01
# Normalized: r1:DSETVAR1
#
DISCID=010e1a11
DTITLE=Various Artist - RPM RC62
DYEAR=1900
DGENRE=Country
TTITLE0=Steve Wariner w Garth Brooks - Katie Wants A Fast One
TTITLE1=Travis Tritt - Best Of Intentions
TTITLE2=Tracy Lawrence - Lonely
TTITLE3=Dixie Chicks - Without You
TTITLE4=John Michael Montgomery - The Little Girl
TTITLE5=Tim McGraw - My Next Thirty Years
TTITLE6=Phil Vassar - Just Another Day In Paradise
TTITLE7=Sara Evans - Born To Fly (Single Edit)
TTITLE8=Brad Paisley - We Danced
TTITLE9=Martina McBride - There You Are
TTITLE10=Sons Of The Dessert - Everybody's Gotta Grow Up Sometime
TTITLE11=Ricochet - She's Gone
TTITLE12=Trace Adkins - I'm Gonna Love You Anyway
TTITLE13=Tammy Cochran - So What
TTITLE14=Kenny Chesney - I Lost It
TTITLE15=Kenny Rogers - He Will, She Knows
TTITLE16=Tracy Byrd - Take Me With You When you Go
EXTD=
EXTT0=
EXTT1=
EXTT2=
EXTT3=
EXTT4=
EXTT5=
EXTT6=
EXTT7=
EXTT8=
EXTT9=
EXTT10=
EXTT11=
EXTT12=
EXTT13=
EXTT14=
EXTT15=
EXTT16=
PLAYORDER=
